<svg width="172" height="159" viewBox="0 0 172 159" fill="none" xmlns="http://www.w3.org/2000/svg">
<path d="M106.424 57.6466L106.424 57.6465C104.059 55.4124 102.437 53.4167 101.749 50.3741C101.534 49.6014 101.396 48.6525 102.136 47.8388C102.569 46.4014 103 44.9641 103.431 43.5279C103.559 43.1017 103.686 42.6755 103.814 42.2495C104.094 40.7994 104.477 39.3326 105.36 38.3507C106.301 37.3047 107.711 36.9008 109.785 37.3549L109.786 37.3553C110.509 37.516 111.09 37.3803 111.544 37.0687C112.008 36.7497 112.381 36.2176 112.611 35.5257C113.736 32.1299 116.094 29.9497 119.067 28.2769C120.162 27.6597 121.223 26.82 121.918 25.8563L121.918 25.8563C122.646 24.8473 123.252 24.0502 123.81 23.5059C124.371 22.9602 124.954 22.5985 125.639 22.596C126.307 22.5935 126.945 22.9358 127.613 23.4656C128.25 23.9699 128.984 24.702 129.878 25.6413C130.1 25.6093 130.283 25.5468 130.434 25.4571C130.57 25.3762 130.692 25.2654 130.798 25.1115C126.711 18.1963 120.812 13.0542 114.122 8.63606C113.849 9.01746 113.577 9.3985 113.305 9.77944L113.299 9.78769C112.96 10.2623 112.621 10.7367 112.282 11.2117C111.994 13.373 111.289 14.9798 109.996 16.0911C108.69 17.2144 106.86 17.7651 104.483 17.9705C99.0769 18.4393 93.6748 18.4988 88.2951 18.5581C86.2011 18.5812 84.1106 18.6042 82.0245 18.6513C78.6016 20.3857 74.8769 22.2357 70.7727 19.5588C70.5431 19.4773 70.314 19.396 70.0833 19.3147C69.488 19.4804 68.8903 19.6517 68.2904 19.8236C66.7575 20.2629 65.2104 20.7062 63.6511 21.0701L106.424 57.6466ZM106.424 57.6466C106.551 57.7661 106.678 57.8856 106.804 58.0052C111.051 62.0118 115.418 66.1323 117.801 71.566L117.852 71.6821C118.807 73.8607 119.753 76.0195 121.942 77.637L121.943 77.6373M106.424 57.6466L121.943 77.6373M121.943 77.6373C122.299 77.9002 122.645 78.1954 122.916 78.5019C123.193 78.8138 123.361 79.1032 123.417 79.3534C123.466 79.5753 123.434 79.7881 123.245 80.0192C123.037 80.2738 122.62 80.5694 121.85 80.8526L121.85 80.8527M121.943 77.6373L121.85 80.8527M121.85 80.8527C121.368 81.0302 120.952 81.2982 120.653 81.6875C120.352 82.0797 120.199 82.5579 120.181 83.1039C120.138 84.4086 119.848 85.4813 119.272 86.2503C118.71 87.002 117.832 87.5209 116.479 87.6474L116.479 87.6475M121.85 80.8527L116.479 87.6475M102.234 88.3725C103.266 87.0731 104.355 85.8665 106.127 85.7481L102.234 88.3725ZM102.234 88.3725C99.0754 92.3539 95.0013 93.1764 90.2547 91.7298L102.234 88.3725ZM116.479 87.6475C115.765 87.715 115.386 87.5755 115.157 87.3927C114.914 87.1988 114.749 86.887 114.603 86.4236C114.533 86.1998 114.473 85.9602 114.408 85.698L114.403 85.6803C114.337 85.4166 114.266 85.132 114.177 84.8504C113.999 84.2872 113.738 83.6913 113.253 83.2032L112.948 82.8973M116.479 87.6475L112.948 82.8973M112.948 82.8973L112.601 83.1534M112.948 82.8973L112.601 83.1534M112.601 83.1534C110.8 84.4822 108.544 85.0865 106.094 85.2492L106.094 85.2492M112.601 83.1534L106.094 85.2492M106.094 85.2492C104.081 85.3837 102.869 86.7688 101.843 88.0616L101.843 88.0617M106.094 85.2492L101.843 88.0617M101.843 88.0617C100.321 89.9796 98.6015 91.1113 96.7139 91.6028C94.8202 92.0959 92.7121 91.956 90.4005 91.2515L90.4002 91.2515M101.843 88.0617L90.4002 91.2515M90.4002 91.2515C86.385 90.0299 82.555 91.3367 80.3616 94.6274L80.3602 94.6296M90.4002 91.2515L80.3602 94.6296M80.3602 94.6296C80.3406 94.6593 80.3109 94.6972 80.2647 94.7526C80.2558 94.7632 80.2459 94.7749 80.2354 94.7875C80.1984 94.8313 80.1531 94.8851 80.1136 94.9361C80.0622 95.0023 79.9979 95.0916 79.9492 95.1946C79.9011 95.2964 79.8491 95.4512 79.8752 95.6339C80.2873 98.6375 82.3307 100.618 84.2062 102.436C84.3296 102.556 84.4522 102.675 84.5736 102.793M80.3602 94.6296L99.8651 102.248M99.8651 102.248L99.865 102.248C98.6212 100.376 97.3782 99.8356 96.1718 99.9295C94.8948 100.029 93.516 100.843 92.0462 102.028C91.9699 102.089 91.8926 102.152 91.8143 102.216C91.2684 102.66 90.671 103.146 90.0091 103.5C89.0661 104.007 88.1001 104.224 87.1589 104.107C86.2155 103.989 85.3403 103.542 84.5736 102.793M99.8651 102.248C100.164 102.697 100.612 102.937 101.029 103.086C101.329 103.193 101.664 103.27 101.952 103.336C102.051 103.359 102.145 103.38 102.23 103.401C102.607 103.495 102.814 103.58 102.918 103.678C102.957 103.714 102.978 103.749 102.989 103.798C103.003 103.855 103.009 103.957 102.967 104.13M99.8651 102.248L100.281 101.971C100.649 102.524 101.369 102.689 102.035 102.842C102.915 103.043 103.7 103.223 103.453 104.247M84.5736 102.793L84.9229 102.435M84.5736 102.793C84.5737 102.793 84.5737 102.793 84.5737 102.793L84.9229 102.435M84.9229 102.435C86.3229 103.802 88.0334 103.994 89.7729 103.06C90.3894 102.729 90.9465 102.277 91.4961 101.83L84.9229 102.435ZM103.453 104.247L102.967 104.13C102.967 104.13 102.967 104.13 102.967 104.13M103.453 104.247L102.967 104.13M103.453 104.247L102.967 104.13M102.967 104.13C102.815 104.762 102.324 105.09 101.512 105.306C101.109 105.414 100.665 105.483 100.198 105.553L100.133 105.562C99.6981 105.627 99.2409 105.696 98.8308 105.801L98.8306 105.801C72.7309 112.547 44.8644 98.527 35.1969 73.811C35.0883 73.5325 34.9108 73.2351 34.7545 72.9733L34.7359 72.9421C34.5641 72.6542 34.4104 72.3934 34.3087 72.1465C34.2057 71.8964 34.1854 71.7274 34.2095 71.6132C34.2279 71.5262 34.2868 71.3975 34.542 71.2542C34.8557 71.079 35.0163 71.0906 35.0894 71.1114C35.1707 71.1346 35.2749 71.2062 35.4032 71.4004C35.5321 71.5954 35.6444 71.8503 35.7697 72.1529C35.7828 72.1844 35.7961 72.2166 35.8095 72.2493C35.9169 72.5099 36.0377 72.8034 36.1789 73.0503M102.967 104.13L36.1789 73.0503M36.1789 73.0503C36.1788 73.0502 36.1788 73.0502 36.1787 73.0501L36.6129 72.8022L36.1789 73.0503ZM81.8065 78.176L81.8065 78.176C79.7642 77.9255 77.879 77.9173 76.3455 78.5206C74.8505 79.1089 73.6299 80.3027 72.9474 82.6125C72.727 83.3605 72.2203 83.7383 71.6686 83.9291C71.2783 84.0641 70.8241 84.1148 70.4574 84.1558C70.3563 84.1671 70.2619 84.1776 70.1773 84.189C68.2849 84.4446 67.0279 85.1189 66.2525 86.1118C65.4725 87.1108 65.1182 88.511 65.1976 90.3415C65.2309 91.0948 65.2473 92.0032 64.932 92.7337C64.7671 93.1158 64.5082 93.4598 64.1151 93.7079C63.726 93.9534 63.2412 94.0825 62.6588 94.0987M81.8065 78.176L59.9741 90.7345L59.4745 90.7541C59.511 91.6842 59.7505 92.5391 60.2869 93.1616C60.8381 93.8012 61.6441 94.1277 62.6588 94.0987M81.8065 78.176C83.5265 78.3867 84.905 78.1152 86.0268 77.3783C87.1376 76.6485 87.9357 75.5018 88.5794 74.0806L88.5796 74.0802M81.8065 78.176L88.5796 74.0802M62.6588 94.0987L62.6449 93.5989L62.6592 94.0987C62.6591 94.0987 62.6589 94.0987 62.6588 94.0987ZM88.5796 74.0802C88.6878 73.8406 88.8057 73.6131 88.9291 73.3747C88.9907 73.256 89.0536 73.1345 89.1174 73.0075C89.3006 72.643 89.4821 72.2489 89.5868 71.8401C89.6932 71.4244 89.7247 70.9778 89.5942 70.5141C89.4636 70.0505 89.1834 69.6131 88.7374 69.1953L88.7369 69.1948M88.5796 74.0802L88.7369 69.1948M88.7369 69.1948C88.7121 69.1716 88.6871 69.1482 88.6621 69.1248M88.7369 69.1948L88.6621 69.1248M32.8615 41.4957L33.5246 41.2373L33.6249 41.1982L33.7324 41.2038C34.485 41.2434 35.0365 41.1193 35.4594 40.9066C35.8824 40.6938 36.2113 40.3749 36.4919 39.9704C36.7761 39.5606 37.0033 39.0739 37.2257 38.5351C37.2967 38.3632 37.3685 38.1825 37.4418 37.9979C37.5901 37.6246 37.7446 37.2359 37.911 36.8731L37.9112 36.8727C39.0942 34.3001 40.9043 32.4838 42.8987 31.6382C44.9038 30.788 47.0819 30.93 48.9009 32.2615L48.6146 32.6527L48.9009 32.2615C54.9655 36.7012 60.8926 41.3151 66.1139 46.7956C66.6381 47.3448 66.9184 47.9422 66.8494 48.5373C66.7796 49.1407 66.3697 49.5855 65.8575 49.8624C62.4848 51.6874 62.0365 54.7972 61.8029 58.3284C61.8014 58.5914 61.8006 58.8537 61.7998 59.1164C61.799 59.3837 61.7982 59.6514 61.7966 59.9192C61.7966 59.9195 61.7966 59.9198 61.7966 59.9201L61.7917 61.933L61.7869 63.934L61.9102 66.2878C62.4752 68.939 63.2409 70.4816 64.6198 71.214C66.0364 71.9665 68.2612 71.9566 72.0106 70.9961L32.8615 41.4957ZM32.8615 41.4957C32.7898 40.7957 32.9097 40.119 33.1288 39.4394C33.3184 38.851 33.5657 38.3013 33.821 37.7337C33.9529 37.4406 34.0869 37.1427 34.2162 36.8322L34.2162 36.8322C38.1213 27.4558 42.6461 18.6055 51.2887 12.698C51.4967 12.9384 51.7018 13.1837 51.91 13.4328C51.9806 13.5172 52.0516 13.6021 52.1232 13.6874C52.4987 14.1348 52.8874 14.5887 53.3055 15.0163C54.0895 15.818 54.9918 16.5425 56.1556 16.9937C56.6856 18.7581 57.5858 20.0077 58.8576 20.7031C60.1811 21.4266 61.8147 21.4991 63.6509 21.0701L32.8615 41.4957ZM88.6621 69.1248C87.9156 68.4267 87.0989 67.6628 86.1409 67.2122M88.6621 69.1248L86.1409 67.2122M86.1409 67.2122C85.1122 66.7283 83.9371 66.6093 82.5233 67.1829M86.1409 67.2122L82.5233 67.1829M82.5233 67.1829C82.0971 67.3555 81.6717 67.5292 81.2466 67.7027M82.5233 67.1829C82.5234 67.1828 82.5234 67.1828 82.5235 67.1828L82.7112 67.6462L81.2466 67.7027M81.2466 67.7027C78.189 68.9506 75.1514 70.1904 72.0108 70.996L81.2466 67.7027ZM56.5097 88.3945L56.3075 87.9372L56.5096 88.3946C56.5096 88.3946 56.5096 88.3945 56.5097 88.3945Z" fill="#050404" stroke="white"/>
<path d="M104.301 42.3686C104.866 39.4402 105.765 36.9886 109.674 37.856C111.372 38.2336 112.572 37.2319 113.082 35.6956C114.156 32.4599 116.4 30.3604 119.31 28.725C120.445 28.0881 121.57 27.2016 122.32 26.1614C125.246 22.1096 125.79 22.0712 129.679 26.1742C129.857 29.2115 131.325 30.9653 134.552 30.9685C134.701 30.9397 134.853 30.9397 135.001 30.9685C134.319 33.1128 135.053 35.2156 135.192 37.3343L135.231 37.3055C134.103 38.8289 134.487 40.5252 134.659 42.199C134.659 43.0087 134.662 43.8184 134.662 44.6282C134.643 45.169 134.623 45.7067 134.604 46.2476C134.559 47.0285 134.51 47.8062 134.465 48.5872C132.845 51.0611 133.566 54.0408 132.677 56.6748L132.661 56.9756C131.784 58.067 131.248 59.2896 131.196 60.6978L131.206 60.6786C130.064 62.378 128.654 63.5558 126.404 63.1205C125.372 62.3012 124.341 61.4787 123.31 60.6594C123.086 60.3073 122.86 59.9553 122.637 59.6064C122.637 59.6064 122.695 59.5488 122.695 59.552C122.188 58.003 121.418 56.6492 119.892 55.8554C119.601 55.609 119.31 55.3626 119.019 55.1161C118.417 54.3032 117.703 53.6471 116.671 53.4135L116.704 53.4455C116.406 53.2118 116.112 52.9814 115.815 52.7478C115.336 52.3221 114.858 51.8965 114.379 51.4708C113.516 50.517 112.656 49.5633 111.792 48.6096L111.799 48.616C110.45 46.3116 110.305 43.0663 106.858 42.3974C106.001 42.3846 105.151 42.375 104.301 42.3686Z" fill="#D1242B"/>
<path d="M111.304 10.9645L111.304 10.9644L111.303 10.9743C111.043 13.0569 110.404 14.432 109.341 15.3457C108.267 16.2692 106.685 16.789 104.393 16.9869L104.393 16.987C99.0269 17.4524 93.685 17.5112 88.3194 17.5703C86.1969 17.5937 84.0706 17.6171 81.9377 17.6657C80.6802 17.4315 79.3905 17.4911 78.1648 17.5476C77.8184 17.5636 77.4771 17.5793 77.1431 17.5882C75.5766 17.6295 74.0923 17.5304 72.6457 16.742L72.6456 16.742C72.2212 16.5108 71.7716 16.3751 71.3668 16.5489C70.9538 16.7263 70.8043 17.1316 70.7377 17.4086C70.6747 17.6706 70.6507 17.9755 70.6309 18.2277C70.6286 18.2576 70.6263 18.2867 70.624 18.3149C70.62 18.3639 70.6161 18.4102 70.612 18.4541C70.5987 18.4495 70.5855 18.4448 70.5723 18.4401C70.1719 13.6344 69.9113 8.9796 71.7135 4.43897C72.0596 3.56806 72.3683 2.90638 72.8166 2.41498C73.246 1.94435 73.8339 1.59931 74.8045 1.44181C86.7066 -0.481057 98.1312 0.318331 108.859 5.91606C108.847 5.92923 108.836 5.94292 108.825 5.95716C108.617 6.22742 108.649 6.53988 108.757 6.78198C108.856 7.00306 109.038 7.22412 109.264 7.44849L109.265 7.44951C109.41 7.59137 109.552 7.72646 109.69 7.85791C110.118 8.26539 110.509 8.63799 110.817 9.06931C111.2 9.60589 111.416 10.1916 111.304 10.9645Z" fill="#D2232A" stroke="white"/>
<path d="M42.934 63.8376C42.6463 63.5688 42.3617 63.2967 42.0772 63.0279C40.8485 58.5376 40.3085 54.041 41.8767 49.5091L41.8735 49.5123C43.044 47.9184 44.2662 46.3566 45.372 44.718C47.5449 41.4983 50.2512 40.3941 53.8532 42.4232L54.0019 42.2696C54.0019 42.2696 53.8305 42.404 53.8338 42.4008C54.3576 42.9129 54.8814 43.425 55.4052 43.9403C55.735 44.4587 56.0648 44.974 56.3946 45.4925C56.4884 47.88 56.5854 50.2708 56.6791 52.6584C56.5757 53.1384 56.4722 53.6185 56.3655 54.0986C55.832 54.9563 55.2953 55.8172 54.7618 56.675C54.1312 56.915 53.5201 57.1678 53.7432 58.0352L53.6559 58.1408L53.4296 57.9487L53.1677 58.0896C52.243 58.304 51.6383 58.8449 51.4184 59.7794L51.4249 59.7826C50.4323 60.3491 49.9731 61.2196 49.9667 62.3366C49.6983 62.9031 49.4299 63.4664 49.1615 64.0329C48.9611 64.0265 48.7638 64.0393 48.5666 64.0681C46.7236 63.0855 44.8611 62.6855 42.934 63.8376Z" fill="#D1272E"/>
<path d="M59.9919 11.1739C59.2891 13.1223 58.3709 14.8467 56.51 16.0635C55.5299 15.6813 54.7459 15.0628 54.0223 14.3232C53.6323 13.9247 53.2641 13.4955 52.891 13.0508C52.8198 12.9659 52.7483 12.8804 52.6764 12.7943C52.4705 12.5477 52.2613 12.2974 52.0479 12.0504C54.6866 9.24182 58.0974 7.6667 61.7212 6.10821C61.4501 6.74219 61.2212 7.38868 61.0103 8.03151C60.8785 8.4335 60.7552 8.82864 60.6333 9.219C60.4268 9.88095 60.2245 10.5292 59.9919 11.1739Z" fill="#CE2F37" stroke="white"/>
<path d="M109.045 90.2671C109.063 90.2808 109.08 90.2938 109.097 90.3063C109.158 90.3518 109.21 90.3905 109.257 90.4287C108.207 91.4786 107.643 92.6994 107.256 93.9441C107.056 94.5896 106.901 95.2488 106.753 95.8931C106.74 95.9504 106.727 96.0075 106.714 96.0646C106.579 96.6543 106.448 97.23 106.287 97.7951L106.286 97.7966C106.211 98.0637 106.005 98.2617 105.677 98.4229C105.392 98.5636 105.08 98.6454 104.79 98.7216C104.76 98.7294 104.731 98.7371 104.702 98.7449C103.528 98.7451 102.674 98.2597 102.225 97.6129C101.772 96.9611 101.689 96.0914 102.167 95.2266L102.167 95.2265C102.71 94.2457 103.108 93.2821 103.394 92.1856L103.394 92.1846C103.781 90.6882 104.628 89.8009 105.606 89.4753C106.589 89.1482 107.819 89.3498 109.045 90.2671ZM109.045 90.2671L109.344 89.867L109.045 90.2673C109.045 90.2672 109.045 90.2672 109.045 90.2671Z" fill="#050404" stroke="white"/>
<path d="M53.85 42.4234C50.2512 40.3943 47.5449 41.5016 45.3688 44.7181C44.263 46.3568 43.0408 47.9154 41.8703 49.5124C41.4144 44.8045 45.0778 42.2601 47.7938 39.5589C49.8567 37.5074 52.812 39.1909 53.85 42.4234Z" fill="#F6F4F3"/>
<path d="M109.635 100.402C109.948 99.9196 110.253 99.4501 110.551 98.9902C111.388 97.7011 112.175 96.4875 112.957 95.2709L109.635 100.402ZM109.635 100.402C111.254 100.113 112.465 99.2695 113.734 98.3851C114.143 98.1005 114.558 97.8116 114.994 97.5356L109.635 100.402Z" fill="#050404" stroke="white"/>
<path d="M136.295 43.8539C136.495 43.5307 136.641 43.153 136.906 42.8938C137.62 42.1897 137.598 42.9546 137.866 43.3514C140.269 46.9104 139.509 51.1222 135.781 53.7146C134.578 50.4949 137.21 47.7873 136.802 44.7981C137.067 44.2572 136.886 43.9499 136.295 43.8539Z" fill="white"/>
<path d="M31.5817 52.4309C31.4334 49.3516 31.4253 46.8195 32.1088 44.4805C32.148 44.611 32.1875 44.7411 32.2268 44.8705C32.291 45.0818 32.3547 45.2915 32.4157 45.4986C32.667 46.3515 32.8812 47.1858 32.9537 48.0288C33.073 49.4155 32.8137 50.8635 31.5817 52.4309Z" fill="#050404" stroke="white"/>
<path d="M41.8769 49.509C40.3087 54.0377 40.8487 58.5375 42.0774 63.0278C40.4477 63.127 38.8763 62.0613 39.5683 60.8355C41.2141 57.923 38.1941 55.0362 40.0306 52.2774C40.8196 51.09 38.7341 50.3763 39.1738 48.9713C40.105 49.1569 40.991 49.333 41.8769 49.509Z" fill="#F6F4F3"/>
<path d="M50.7613 75.8307L50.7615 75.8307C51.0495 75.8527 51.2509 75.8169 51.3941 75.7559C51.5318 75.6972 51.643 75.6039 51.7374 75.4611C51.9282 75.1723 52.046 74.6888 52.0823 73.957C51.2785 72.9062 50.3488 71.9086 48.7522 72.0052L50.7613 75.8307ZM50.7613 75.8307C49.9282 75.7674 49.3086 75.3796 48.7751 74.8249C48.329 74.361 47.9689 73.8108 47.6005 73.2481C47.5134 73.115 47.4258 72.9812 47.3365 72.8476L47.3365 72.8476M50.7613 75.8307L47.3365 72.8476M47.3365 72.8476L47.3359 72.8467M47.3365 72.8476L47.3359 72.8467M47.3359 72.8467C47.3148 72.8152 47.3122 72.8047 47.3298 72.7626M47.3359 72.8467L47.3298 72.7626M47.3298 72.7626C47.359 72.6929 47.4415 72.5831 47.6058 72.4576M47.3298 72.7626L47.6058 72.4576M47.6058 72.4576C47.9359 72.2057 48.4162 72.0259 48.7521 72.0052L47.6058 72.4576Z" fill="#050404" stroke="white"/>
<path d="M134.549 30.9686C131.322 30.9654 129.854 29.2115 129.676 26.1743C130.439 26.1359 131.034 25.8318 131.367 25.1181C132.906 26.8144 134.009 28.7443 134.549 30.9686Z" fill="white"/>
<path d="M126.401 63.1177C128.648 63.553 130.061 62.3752 131.202 60.6757C131.218 61.1974 131.338 61.7415 131.235 62.2376C130.947 63.6202 132.179 65.8029 129.877 66.1453C127.988 66.4302 126.869 64.9164 126.401 63.1177Z" fill="#F6F3F2"/>
<path d="M116.439 60.6817C113.299 61.117 112.342 59.3887 112.086 56.5915C114.414 56.5019 115.268 58.0125 116.248 59.3375C116.312 59.7888 116.377 60.2337 116.439 60.6817Z" fill="white"/>
<path d="M42.9341 63.8374C44.8612 62.6852 46.7236 63.0853 48.5634 64.0646C48.4276 64.5415 48.2918 65.0216 48.156 65.4985C47.671 65.7929 47.1827 66.0873 46.6977 66.3786C45.6825 66.2986 44.6672 66.2186 43.6519 66.1386L43.487 66.3498L43.6681 66.1514C43.3803 65.6585 43.0925 65.1688 42.808 64.6759C42.85 64.4007 42.8921 64.119 42.9341 63.8374Z" fill="#CE2F37"/>
<path d="M106.852 42.3943C110.302 43.0664 110.444 46.3085 111.792 48.6129C108.898 47.5119 107.573 45.1884 106.852 42.3943Z" fill="#F6F3F2"/>
<path d="M110.047 6.50841C111.262 6.81347 112.361 7.30697 113.318 8.05582C112.943 8.57568 112.57 9.09688 112.197 9.61839C112.073 9.20078 111.872 8.82788 111.63 8.48832C111.264 7.97509 110.779 7.51302 110.34 7.09412C110.211 6.97062 110.085 6.85089 109.968 6.7347C109.895 6.66212 109.836 6.5991 109.791 6.5449C109.863 6.53153 109.949 6.51958 110.047 6.50841ZM109.576 6.60525C109.576 6.60524 109.576 6.60505 109.577 6.60467L109.576 6.60525Z" fill="#CE2F37" stroke="white"/>
<path d="M132.67 56.6715C133.559 54.0407 132.838 51.0579 134.458 48.5839C134.471 50.4498 134.477 52.3125 134.503 54.1784C134.523 55.4778 134.371 56.6267 132.67 56.6715Z" fill="#F6F3F2"/>
<path d="M56.676 52.6583C56.5823 50.2708 56.4852 47.88 56.3915 45.4924C59.5505 47.7584 58.4673 50.1939 56.676 52.6583Z" fill="#F6F4F3"/>
<path d="M135.189 37.3376C135.05 35.2157 134.316 33.113 134.998 30.9719C136.547 33.049 137.452 35.1485 135.189 37.3376Z" fill="#F6F3F2"/>
<path d="M111.789 48.6065C112.652 49.5602 113.512 50.514 114.376 51.4677C113.936 52.3863 112.917 53.3336 112.258 52.7447C111.107 51.711 111.896 50.0179 111.789 48.6065Z" fill="#F6F3F2"/>
<path d="M119.889 55.8526C121.415 56.6431 122.188 57.9969 122.692 59.5491C121.751 59.674 120.81 59.7988 119.869 59.9268C119.876 58.5666 119.882 57.2096 119.889 55.8526Z" fill="#F6F3F2"/>
<path d="M43.6486 66.142C44.6639 66.222 45.6792 66.302 46.6944 66.382C46.5942 67.5534 45.9152 68.027 44.7803 67.8862C43.7262 67.755 43.529 67.0413 43.6486 66.142Z" fill="#F6F4F3"/>
<path d="M134.655 42.2023C134.484 40.5285 134.099 38.8322 135.228 37.3088C135.186 38.957 135.852 40.6853 134.655 42.2023Z" fill="#F6F3F2"/>
<path d="M138.587 40.5893C139.302 40.7141 140.223 40.3749 140.566 41.3318C140.621 41.4886 140.194 42.0007 139.936 42.0455C138.862 42.2311 138.668 41.4374 138.539 40.6341L138.587 40.5893Z" fill="#F6F3F2"/>
<path d="M117.195 61.4308C117.13 60.9828 117.069 60.5347 117.004 60.0898C117.958 60.0354 118.915 59.981 119.869 59.9298C119.698 61.6837 118.434 61.5365 117.195 61.4308Z" fill="#F6F3F2"/>
<path d="M131.189 60.6947C131.241 59.2865 131.778 58.064 132.654 56.9726C132.993 58.5312 132.997 59.9618 131.189 60.6947Z" fill="#F6F3F2"/>
<path d="M137.051 44.6027C137.64 44.6955 137.824 45.0028 137.556 45.5469C136.57 45.7805 135.587 46.0141 134.6 46.2478C134.62 45.7069 134.639 45.1692 134.659 44.6283C135.454 44.6187 136.253 44.6123 137.051 44.6027Z" fill="#F6F3F2"/>
<path d="M61.2836 63.9526C61.3257 64.756 61.3677 65.5561 61.4097 66.3594C58.8521 65.6841 59.9612 64.8232 61.2836 63.9526Z" fill="#F6F4F3"/>
<path d="M49.9636 62.3368C49.9733 61.2166 50.4292 60.3493 51.4219 59.7828C51.6256 61.0182 51.6967 62.1831 49.9636 62.3368Z" fill="#F6F4F3"/>
<path d="M55.3987 43.9404C54.8749 43.4283 54.3511 42.9131 53.8273 42.401C54.5936 42.2794 55.4569 42.0073 55.9936 42.7434C56.3784 43.2619 55.8611 43.6588 55.3987 43.9404Z" fill="#F6F4F3"/>
<path d="M116.665 53.4106C117.696 53.641 118.411 54.3003 119.012 55.1132C117.806 55.1196 116.633 55.0812 116.665 53.4106Z" fill="#F6F3F2"/>
<path d="M54.7585 56.6718C55.2921 55.8141 55.8288 54.9531 56.3623 54.0954C56.4852 55.3564 56.5822 56.5982 54.7585 56.6718Z" fill="#F6F4F3"/>
<path d="M138.348 34.4861C138.571 34.5821 138.917 34.6333 138.982 34.7933C139.046 34.9502 138.823 35.219 138.726 35.4398C138.503 35.3438 138.157 35.2958 138.093 35.1358C138.028 34.979 138.251 34.7069 138.348 34.4861Z" fill="#F6F3F2"/>
<path d="M55.4247 65.0666C55.6478 65.1626 55.9938 65.2138 56.0585 65.3738C56.1231 65.5307 55.9 65.7995 55.7998 66.0203C55.5767 65.9243 55.2307 65.8763 55.1661 65.7163C55.1046 65.5563 55.3277 65.2874 55.4247 65.0666Z" fill="#F6F4F3"/>
<path d="M59.392 54.076C59.295 54.2969 59.2433 54.6393 59.0816 54.7033C58.9232 54.7673 58.6516 54.5465 58.4285 54.4473C58.5255 54.2265 58.574 53.884 58.7356 53.82C58.8973 53.7592 59.1689 53.98 59.392 54.076Z" fill="#F6F4F3"/>
<path d="M51.4154 59.7764C51.6353 58.8451 52.2399 58.301 53.1647 58.0865C53.1873 59.2643 52.712 59.9364 51.4154 59.7764Z" fill="#F6F4F3"/>
<path d="M42.8048 64.6825C43.0926 65.1754 43.3803 65.665 43.6649 66.1579C43.1863 66.0683 42.517 66.1355 42.2778 65.8507C41.8962 65.3962 42.3327 64.9513 42.8048 64.6825Z" fill="#F6F4F3"/>
<path d="M32.1734 42.8136C32.1346 42.5416 32.2348 42.3335 32.4709 42.1927C32.8815 42.0327 33.2922 41.8727 33.7028 41.7126C33.5638 42.58 33.1434 43.0697 32.1734 42.8136Z" fill="#F6F4F3"/>
<path d="M102.234 50.2483C102.018 49.4802 101.937 48.7313 102.58 48.0944C102.787 48.8625 102.849 49.6083 102.234 50.2483Z" fill="#F6F3F2"/>
<path d="M61.2999 58.3167C61.2966 58.8511 61.2966 59.3856 61.2934 59.9233C60.498 59.3856 60.5012 58.8511 61.2999 58.3167Z" fill="#F6F4F3"/>
<path d="M48.156 65.502C48.2918 65.0251 48.4276 64.545 48.5634 64.0681C48.7606 64.0393 48.9579 64.0297 49.1584 64.0329C49.1293 64.7274 48.9029 65.2875 48.156 65.502Z" fill="#F6F4F3"/>
<path d="M122.634 59.6033C122.857 59.9553 123.083 60.3074 123.306 60.6562C122.779 60.4962 122.524 60.1634 122.634 59.6033Z" fill="#F6F3F2"/>
<path d="M53.7401 58.0319C53.9277 58.1471 54.112 58.2591 54.2995 58.3743C53.863 58.912 53.8727 58.2015 53.6528 58.1407C53.6528 58.1375 53.7401 58.0319 53.7401 58.0319Z" fill="#F6F4F3"/>
<path d="M115.811 52.7447C116.109 52.9783 116.403 53.2088 116.7 53.4424C116.403 53.2088 116.106 52.9783 115.811 52.7447Z" fill="#F6F3F2"/>
<path d="M138.538 40.6335C138.428 40.5633 138.319 40.4931 138.206 40.426C138.331 40.4803 138.457 40.5346 138.583 40.5888C138.586 40.5888 138.538 40.6335 138.538 40.6335Z" fill="#F6F3F2"/>
<path d="M70.9999 19.1174C71.3006 18.3077 70.835 16.317 72.4096 17.1779C75.5395 18.887 78.7826 17.562 81.8996 18.1637C78.3978 19.9399 74.8896 21.6906 70.9999 19.1174Z" fill="#D1242B"/>
<path d="M20.7848 140.678C20.7848 142.951 20.38 144.929 19.5703 146.612C18.7607 148.288 17.6456 149.588 16.2251 150.511C14.8118 151.427 13.1854 151.885 11.3459 151.885C9.50639 151.885 7.87642 151.427 6.45597 150.511C5.04261 149.588 3.93111 148.288 3.12145 146.612C2.31889 144.929 1.91761 142.951 1.91761 140.678C1.91761 138.405 2.31889 136.431 3.12145 134.755C3.93111 133.071 5.04616 131.772 6.46662 130.855C7.88707 129.932 9.51349 129.47 11.3459 129.47C13.1854 129.47 14.8118 129.932 16.2251 130.855C17.6456 131.772 18.7607 133.071 19.5703 134.755C20.38 136.431 20.7848 138.405 20.7848 140.678ZM18.8459 140.678C18.8459 138.725 18.5192 137.052 17.8658 135.66C17.2124 134.261 16.321 133.192 15.1918 132.453C14.0625 131.715 12.7805 131.345 11.3459 131.345C9.91832 131.345 8.63991 131.715 7.51065 132.453C6.38139 133.192 5.48651 134.257 4.82599 135.649C4.17259 137.041 3.84588 138.718 3.84588 140.678C3.84588 142.631 4.17259 144.304 4.82599 145.696C5.4794 147.088 6.37074 148.157 7.5 148.902C8.62926 149.641 9.91122 150.01 11.3459 150.01C12.7805 150.01 14.0625 149.641 15.1918 148.902C16.3281 148.164 17.223 147.098 17.8764 145.706C18.5298 144.307 18.853 142.631 18.8459 140.678ZM41.095 129.769V151.587H39.1561L26.2654 133.316H26.095V151.587H24.1028V129.769H26.0311L38.9643 148.061H39.1348V129.769H41.095ZM45.3958 151.587V129.769H58.052V131.559H47.388V139.772H57.3809V141.562H47.388V149.797H58.2651V151.587H45.3958ZM61.7083 151.587V129.769H63.7005V149.797H74.0982V151.587H61.7083ZM79.0755 129.769V151.587H77.0833V129.769H79.0755ZM82.0552 131.559V129.769H97.8755V131.559H90.9615V151.587H88.9693V131.559H82.0552ZM117.839 140.678C117.839 142.951 117.435 144.929 116.625 146.612C115.815 148.288 114.7 149.588 113.28 150.511C111.866 151.427 110.24 151.885 108.401 151.885C106.561 151.885 104.931 151.427 103.511 150.511C102.097 149.588 100.986 148.288 100.176 146.612C99.3736 144.929 98.9723 142.951 98.9723 140.678C98.9723 138.405 99.3736 136.431 100.176 134.755C100.986 133.071 102.101 131.772 103.521 130.855C104.942 129.932 106.568 129.47 108.401 129.47C110.24 129.47 111.866 129.932 113.28 130.855C114.7 131.772 115.815 133.071 116.625 134.755C117.435 136.431 117.839 138.405 117.839 140.678ZM115.901 140.678C115.901 138.725 115.574 137.052 114.92 135.66C114.267 134.261 113.376 133.192 112.246 132.453C111.117 131.715 109.835 131.345 108.401 131.345C106.973 131.345 105.695 131.715 104.565 132.453C103.436 133.192 102.541 134.257 101.881 135.649C101.227 137.041 100.901 138.718 100.901 140.678C100.901 142.631 101.227 144.304 101.881 145.696C102.534 147.088 103.425 148.157 104.555 148.902C105.684 149.641 106.966 150.01 108.401 150.01C109.835 150.01 111.117 149.641 112.246 148.902C113.383 148.164 114.278 147.098 114.931 145.706C115.585 144.307 115.908 142.631 115.901 140.678Z" fill="white"/>
<path d="M127.839 151.587V129.769H130.481V140.593H130.737L140.538 129.769H143.99L134.828 139.612L143.99 151.587H140.794L133.209 141.445L130.481 144.513V151.587H127.839ZM163.293 140.678C163.293 142.979 162.878 144.968 162.047 146.644C161.216 148.32 160.076 149.612 158.627 150.522C157.178 151.431 155.523 151.885 153.663 151.885C151.802 151.885 150.147 151.431 148.698 150.522C147.249 149.612 146.109 148.32 145.278 146.644C144.447 144.968 144.032 142.979 144.032 140.678C144.032 138.377 144.447 136.388 145.278 134.712C146.109 133.036 147.249 131.743 148.698 130.834C150.147 129.925 151.802 129.47 153.663 129.47C155.523 129.47 157.178 129.925 158.627 130.834C160.076 131.743 161.216 133.036 162.047 134.712C162.878 136.388 163.293 138.377 163.293 140.678ZM160.737 140.678C160.737 138.789 160.42 137.194 159.788 135.894C159.163 134.595 158.315 133.611 157.242 132.943C156.177 132.276 154.984 131.942 153.663 131.942C152.342 131.942 151.145 132.276 150.072 132.943C149.007 133.611 148.158 134.595 147.526 135.894C146.901 137.194 146.589 138.789 146.589 140.678C146.589 142.567 146.901 144.161 147.526 145.461C148.158 146.761 149.007 147.745 150.072 148.412C151.145 149.08 152.342 149.414 153.663 149.414C154.984 149.414 156.177 149.08 157.242 148.412C158.315 147.745 159.163 146.761 159.788 145.461C160.42 144.161 160.737 142.567 160.737 140.678ZM168.878 129.769V151.587H166.236V129.769H168.878Z" fill="#D52027"/>
</svg>
