<svg width="229" height="60" viewBox="0 0 229 60" fill="none" xmlns="http://www.w3.org/2000/svg">
<path d="M42.1456 23.5403C41.8166 24.6001 41.4875 25.6616 41.1566 26.7232C40.7885 27.0753 40.8331 27.4914 40.9577 27.9199C41.3332 29.5345 42.2182 30.5979 43.5641 31.8266C46.0628 34.1063 48.7324 36.4802 50.1714 39.6507C50.7347 40.8919 51.2497 42.0477 52.4599 42.9119C53.3188 43.5236 54.1963 44.5212 52.3354 45.1827C51.8557 45.3534 51.5806 45.6717 51.5638 46.182C51.5118 47.6935 50.8667 48.8209 49.1749 48.9738C47.3474 49.1409 48.0185 47.3272 47.089 46.4239C45.994 47.2045 44.6368 47.5494 43.196 47.6419C42.1772 47.7077 41.5507 48.3781 40.9577 49.1C39.1413 51.3121 36.7989 51.7691 34.0697 50.9654C31.8741 50.3199 29.8068 51.0098 28.6207 52.7293C28.5371 52.852 28.3697 52.9854 28.3865 53.0956C28.6226 54.7618 29.8514 55.827 31.0041 56.9134C31.8091 57.6727 32.7925 57.7794 33.7927 57.2602C34.198 57.0504 34.5587 56.7516 34.9193 56.4707C36.6204 55.1459 38.3271 54.4631 39.8348 56.6556C40.3256 57.3686 41.9077 56.9205 41.6586 57.9199C41.4076 58.9246 39.9928 58.8232 39.0726 59.0526C23.9283 62.8348 7.75791 54.977 2.1453 41.1106C1.92778 40.5718 1.08933 39.7841 1.89618 39.3466C2.77553 38.8719 2.90753 39.9085 3.22729 40.4491C3.55821 41.0092 4.11036 41.4022 4.75361 41.3062C6.93619 40.9772 7.76721 42.3589 8.57777 43.8704C9.1448 44.9266 9.8494 45.9171 10.409 46.9769C11.2902 48.6519 12.2495 49.8415 14.5511 48.8582C15.8376 48.3087 16.6054 49.0929 16.6593 50.4123C16.6983 51.3744 17.1687 52.0323 18.1949 52.0038C19.3847 51.9718 19.4145 51.0596 19.3754 50.2061C19.2806 48.0954 20.212 46.7973 22.4875 46.5003C23.0081 46.4327 23.6532 46.4434 23.8428 45.821C24.672 43.1093 26.8769 42.8781 29.2472 43.1591C31.1249 43.3814 32.127 42.5758 32.8446 41.0448C33.2294 40.2215 33.908 39.4693 33.0007 38.6478C32.1009 37.8352 31.2067 37.0065 29.7325 37.5844C27.7339 38.3668 25.7317 39.199 23.6513 39.7147C19.3345 40.7834 18.141 39.8552 17.4866 36.8661C17.4624 36.4197 17.4382 35.9752 17.4141 35.5288C17.4159 34.782 17.4178 34.0369 17.4196 33.2901C17.4215 32.9931 17.4215 32.6962 17.4234 32.3974C17.5572 30.4361 17.8138 28.553 19.9053 27.4594C20.3886 27.2069 20.5206 26.7374 19.9815 26.1915C16.9976 23.1651 13.6066 20.6133 10.1227 18.1488C8.20968 16.7956 5.54744 17.8447 4.23492 20.6027C3.67347 21.7852 3.44667 23.2664 1.55596 23.1704C1.31986 23.2593 1.08375 23.3482 0.847648 23.4371L0.849506 23.4389C0.550191 22.2973 1.17299 21.3104 1.58385 20.3573C3.8631 15.0689 6.53277 10.0188 11.7141 6.68829C12.6064 7.64674 13.3371 8.77767 14.6998 9.22933C15.2687 11.2405 16.676 11.8948 18.708 11.4361C19.9778 11.1498 21.2252 10.7764 22.482 10.4403C22.6549 10.499 22.8259 10.5576 22.9969 10.6163C25.2353 12.046 27.2506 11.0733 29.2658 10.0864C33.5845 9.9904 37.8976 10.0704 42.2256 9.70767C44.9101 9.48361 46.1501 8.51805 46.4588 6.1246C46.8789 5.55558 47.2991 4.98833 47.7192 4.41931C51.7256 6.94791 55.282 9.9086 57.7119 13.9487C57.5204 14.3452 57.1783 14.5141 56.7396 14.5355C54.5031 12.254 54.1889 12.2772 52.5083 14.5284C52.077 15.1063 51.43 15.597 50.7774 15.9527C49.1061 16.8613 47.814 18.0261 47.1968 19.8256C46.9031 20.6791 46.2134 21.2357 45.2373 21.0259C42.986 20.5493 42.4691 21.9114 42.1456 23.5403Z" fill="#050404"/>
<path d="M42.1456 23.5402C42.471 21.9132 42.9878 20.5511 45.2354 21.0329C46.2115 21.2428 46.9012 20.6862 47.1949 19.8327C47.8122 18.0349 49.1024 16.8684 50.7756 15.9598C51.4281 15.6059 52.0751 15.1133 52.5064 14.5354C54.1889 12.2842 54.5012 12.2629 56.7377 14.5425C56.8399 16.23 57.684 17.2045 59.5394 17.2063C59.6249 17.1903 59.7122 17.1903 59.7978 17.2063C59.4055 18.3977 59.8275 19.5659 59.9075 20.7431L59.9298 20.7271C59.2809 21.5735 59.5022 22.516 59.6007 23.446C59.6007 23.8958 59.6026 24.3457 59.6026 24.7956C59.5914 25.0961 59.5802 25.3949 59.5691 25.6954C59.5431 26.1293 59.5152 26.5614 59.4892 26.9952C58.5577 28.3698 58.9723 30.0253 58.4611 31.4887L58.4518 31.6559C57.948 32.2622 57.6394 32.9415 57.6096 33.7239L57.6152 33.7133C56.9589 34.6575 56.1484 35.3119 54.8544 35.07C54.2614 34.6148 53.6683 34.1578 53.0753 33.7026C52.947 33.507 52.8169 33.3114 52.6886 33.1176C52.6886 33.1176 52.722 33.0856 52.722 33.0873C52.4302 32.2267 51.9877 31.4745 51.1102 31.0335C50.9429 30.8966 50.7756 30.7597 50.6082 30.6228C50.2625 30.1711 49.8516 29.8066 49.2585 29.6768L49.2771 29.6945C49.1061 29.5647 48.9369 29.4367 48.7659 29.3069C48.4907 29.0704 48.2156 28.8339 47.9404 28.5974C47.4441 28.0675 46.9495 27.5376 46.4532 27.0077L46.4569 27.0112C45.6816 25.7309 45.598 23.9278 43.6162 23.5562C43.1235 23.5491 42.6346 23.5438 42.1456 23.5402Z" fill="#D1242B"/>
<path d="M46.4569 6.1317C46.1483 8.52515 44.9082 9.49072 42.2237 9.71477C37.8957 10.0775 33.5845 9.9975 29.2639 10.0935C27.4718 9.75922 25.6071 10.4936 23.8075 9.54584C22.9021 9.06928 23.1698 10.1735 22.9969 10.6234C22.8259 10.5647 22.653 10.5061 22.4819 10.4474C22.244 7.71963 22.0543 5.01144 23.1419 2.3637C23.5398 1.39637 23.9153 0.718874 25.1404 0.526828C32.2366 -0.580988 39.0669 -0.0759795 45.4697 3.33638C44.9975 3.38083 44.7112 3.47152 45.202 3.94096C45.8396 4.54733 46.6112 5.10213 46.4569 6.1317Z" fill="#D2232A"/>
<path d="M6.8618 35.4684C6.69634 35.319 6.53274 35.1679 6.36914 35.0185C5.66268 32.5237 5.35221 30.0253 6.25387 27.5074L6.25202 27.5092C6.92501 26.6236 7.62775 25.7559 8.26356 24.8454C9.51287 23.0566 11.0689 22.4431 13.14 23.5705L13.2255 23.4851C13.2255 23.4851 13.127 23.5598 13.1288 23.558C13.43 23.8425 13.7312 24.1271 14.0323 24.4133C14.222 24.7014 14.4116 24.9877 14.6012 25.2758C14.6551 26.6023 14.7109 27.9306 14.7648 29.2571C14.7053 29.5239 14.6458 29.7906 14.5845 30.0573C14.2777 30.5339 13.9691 31.0122 13.6624 31.4888C13.2999 31.6221 12.9485 31.7626 13.0768 32.2445L13.0266 32.3032L12.8964 32.1965L12.7458 32.2747C12.2141 32.3939 11.8665 32.6944 11.7401 33.2136L11.7438 33.2154C11.173 33.5302 10.9091 34.0138 10.9053 34.6344C10.751 34.9491 10.5967 35.2621 10.4424 35.5769C10.3272 35.5733 10.2138 35.5804 10.1003 35.5964C9.04066 35.0505 7.96982 34.8282 6.8618 35.4684Z" fill="#D1272E"/>
<path d="M14.7015 9.23286C13.3388 8.7812 12.6063 7.65027 11.7158 6.69182C13.4727 4.78026 15.8486 3.84315 18.258 2.84558C17.0254 5.00253 17.1611 7.77829 14.7015 9.23286Z" fill="#CE2F37"/>
<path d="M42.4151 55.1405C40.8665 55.1619 40.015 53.9136 40.6676 52.7737C40.9687 52.2474 41.1881 51.7335 41.3461 51.1485C41.8295 49.3436 43.5213 48.8279 45.0457 49.9304C45.2447 50.0745 45.4492 50.2078 45.2707 50.3714C44.0604 51.481 43.9805 52.9996 43.564 54.4115C43.4153 54.9218 42.7628 55.0498 42.4151 55.1405Z" fill="#050404"/>
<path d="M13.138 23.5705C11.0688 22.4431 9.51278 23.0584 8.2616 24.8455C7.62579 25.7559 6.92306 26.6219 6.25006 27.5092C5.98793 24.8935 8.09429 23.4798 9.65593 21.979C10.842 20.8392 12.5412 21.7745 13.138 23.5705Z" fill="#F6F4F3"/>
<path d="M44.6461 56.1185C45.4641 54.8969 46.1762 53.8424 46.8808 52.7826C47.1373 52.3968 46.8175 51.6552 47.6207 51.6143C48.3476 51.577 48.4461 52.194 48.6041 52.6493C48.8086 53.2414 49.2437 53.9367 48.448 54.4257C47.3251 55.1121 46.3174 56.0705 44.6461 56.1185Z" fill="#050404"/>
<path d="M60.5414 24.3653C60.6566 24.1857 60.7403 23.9759 60.8927 23.8318C61.3036 23.4406 61.2906 23.8656 61.4449 24.0861C62.8262 26.0635 62.3893 28.4036 60.2458 29.8439C59.5542 28.055 61.0675 26.5507 60.8332 24.8898C60.9857 24.5893 60.8816 24.4186 60.5414 24.3653Z" fill="#050404"/>
<path d="M0.84946 23.4442L0.847602 23.4424C0.710028 23.5207 0.654253 23.6363 0.676562 23.7874C1.1023 25.651 2.40367 27.5768 0.0835109 29.8191C-0.0596396 27.2727 -0.132144 25.3096 0.84946 23.4442Z" fill="#050404"/>
<path d="M6.25382 27.5074C5.35215 30.0236 5.66262 32.5237 6.36908 35.0185C5.4321 35.0736 4.52857 34.4815 4.92642 33.8004C5.8727 32.1823 4.1363 30.5784 5.19227 29.0456C5.64589 28.3858 4.44677 27.9893 4.69961 27.2087C5.23503 27.3118 5.74442 27.4096 6.25382 27.5074Z" fill="#F6F4F3"/>
<path d="M12.413 41.0021C12.3833 41.941 12.1341 42.4674 11.3403 42.4087C10.2025 42.3251 9.66711 41.3702 9.154 40.6287C8.86956 40.2197 9.67827 39.7592 10.1895 39.7289C11.3143 39.6631 11.9389 40.394 12.413 41.0021Z" fill="#050404"/>
<path d="M59.5375 17.2063C57.6821 17.2045 56.8381 16.2301 56.7358 14.5426C57.1746 14.5212 57.5167 14.3523 57.7082 13.9557C58.5931 14.8982 59.227 15.9705 59.5375 17.2063Z" fill="#050404"/>
<path d="M54.8525 35.0683C56.1446 35.3101 56.957 34.6557 57.6133 33.7115C57.6226 34.0013 57.6914 34.3036 57.6319 34.5792C57.4664 35.3474 58.1747 36.5602 56.8511 36.7504C55.7654 36.9087 55.1221 36.0676 54.8525 35.0683Z" fill="#F6F3F2"/>
<path d="M49.1247 33.7151C47.3195 33.9569 46.7692 32.9967 46.6223 31.4425C47.9609 31.3928 48.4517 32.2321 49.015 32.9682C49.0522 33.219 49.0893 33.4661 49.1247 33.7151Z" fill="#050404"/>
<path d="M6.86181 35.4684C7.96983 34.8282 9.04067 35.0505 10.0985 35.5946C10.0204 35.8596 9.94234 36.1263 9.86426 36.3913C9.58539 36.5549 9.30467 36.7185 9.0258 36.8803C8.44204 36.8358 7.85829 36.7914 7.27453 36.7469L7.17972 36.8643L7.28383 36.754C7.11837 36.4802 6.95291 36.2081 6.78931 35.9343C6.81347 35.7814 6.83764 35.6249 6.86181 35.4684Z" fill="#CE2F37"/>
<path d="M43.6124 23.5544C45.5961 23.9279 45.6779 25.7292 46.4531 27.0095C44.7892 26.3978 44.027 25.1068 43.6124 23.5544Z" fill="#F6F3F2"/>
<path d="M46.4569 6.1317C46.6112 5.10212 45.8378 4.54732 45.202 3.93918C44.7112 3.46974 44.9975 3.38083 45.4697 3.33459C46.31 3.53197 47.0723 3.87517 47.7211 4.42818C47.2972 4.99365 46.8771 5.56267 46.4569 6.1317Z" fill="#CE2F37"/>
<path d="M58.4573 31.487C58.9685 30.0253 58.5539 28.368 59.4854 26.9935C59.4928 28.0302 59.4965 29.0651 59.5114 30.1018C59.5225 30.8237 59.4352 31.4621 58.4573 31.487Z" fill="#F6F3F2"/>
<path d="M14.763 29.2571C14.7091 27.9306 14.6533 26.6023 14.5994 25.2758C16.4157 26.5347 15.7929 27.8879 14.763 29.2571Z" fill="#F6F4F3"/>
<path d="M59.9055 20.7449C59.8256 19.566 59.4036 18.3977 59.7959 17.2081C60.6864 18.3621 61.2069 19.5286 59.9055 20.7449Z" fill="#F6F3F2"/>
<path d="M46.4513 27.0059C46.9477 27.5358 47.4422 28.0657 47.9386 28.5956C47.6858 29.106 47.1001 29.6323 46.7209 29.3051C46.0591 28.7308 46.5127 27.7901 46.4513 27.0059Z" fill="#F6F3F2"/>
<path d="M51.1083 31.0318C51.9858 31.471 52.4301 32.2232 52.7202 33.0856C52.1792 33.155 51.6382 33.2243 51.0972 33.2954C51.1009 32.5397 51.1046 31.7858 51.1083 31.0318Z" fill="#F6F3F2"/>
<path d="M7.27266 36.7487C7.85641 36.7931 8.44017 36.8376 9.02393 36.882C8.9663 37.5328 8.57588 37.796 7.92334 37.7178C7.31728 37.6449 7.20387 37.2483 7.27266 36.7487Z" fill="#F6F4F3"/>
<path d="M59.5988 23.4477C59.5003 22.5177 59.279 21.5753 59.9279 20.7289C59.9037 21.6447 60.2867 22.6049 59.5988 23.4477Z" fill="#F6F3F2"/>
<path d="M61.8594 22.5516C62.2703 22.6209 62.8001 22.4324 62.9972 22.9641C63.0288 23.0512 62.7834 23.3358 62.6347 23.3607C62.0175 23.4638 61.9059 23.0228 61.8315 22.5765L61.8594 22.5516Z" fill="#F6F3F2"/>
<path d="M49.5596 34.1312C49.5225 33.8822 49.4871 33.6333 49.45 33.3861C49.9984 33.3559 50.5487 33.3256 51.0971 33.2972C50.9986 34.2716 50.2717 34.1898 49.5596 34.1312Z" fill="#F6F3F2"/>
<path d="M57.6058 33.7222C57.6356 32.9397 57.9442 32.2605 58.448 31.6541C58.6432 32.5201 58.6451 33.3149 57.6058 33.7222Z" fill="#F6F3F2"/>
<path d="M60.9765 24.7814C61.3148 24.833 61.4208 25.0037 61.2665 25.306C60.6994 25.4358 60.1343 25.5656 59.5673 25.6954C59.5784 25.3949 59.5896 25.0962 59.6007 24.7957C60.0581 24.7903 60.5173 24.7868 60.9765 24.7814Z" fill="#F6F3F2"/>
<path d="M17.4122 35.5323C17.4363 35.9787 17.4605 36.4232 17.4847 36.8695C16.0141 36.4944 16.6518 36.016 17.4122 35.5323Z" fill="#F6F4F3"/>
<path d="M10.9034 34.6344C10.909 34.012 11.1712 33.5301 11.7419 33.2154C11.859 33.9018 11.8999 34.549 10.9034 34.6344Z" fill="#F6F4F3"/>
<path d="M14.0285 24.4133C13.7273 24.1288 13.4262 23.8425 13.125 23.558C13.5656 23.4904 14.062 23.3393 14.3706 23.7483C14.5918 24.0363 14.2944 24.2568 14.0285 24.4133Z" fill="#F6F4F3"/>
<path d="M49.2548 29.675C49.8478 29.803 50.2587 30.1693 50.6045 30.621C49.911 30.6245 49.2362 30.6032 49.2548 29.675Z" fill="#F6F3F2"/>
<path d="M13.6605 31.487C13.9673 31.0104 14.2759 30.5321 14.5826 30.0555C14.6533 30.7562 14.7091 31.4461 13.6605 31.487Z" fill="#F6F4F3"/>
<path d="M61.7219 19.1605C61.8502 19.2139 62.0491 19.2423 62.0863 19.3312C62.1234 19.4184 61.9952 19.5677 61.9394 19.6904C61.8111 19.6371 61.6122 19.6104 61.575 19.5215C61.5378 19.4344 61.6661 19.2832 61.7219 19.1605Z" fill="#F6F3F2"/>
<path d="M14.0435 36.1512C14.1717 36.2045 14.3707 36.233 14.4078 36.3219C14.445 36.409 14.3167 36.5584 14.2591 36.6811C14.1308 36.6277 13.9319 36.6011 13.8947 36.5122C13.8594 36.4232 13.9877 36.2739 14.0435 36.1512Z" fill="#F6F4F3"/>
<path d="M16.3246 30.0449C16.2689 30.1676 16.2391 30.3579 16.1462 30.3934C16.0551 30.429 15.8989 30.3063 15.7706 30.2512C15.8264 30.1285 15.8543 29.9382 15.9472 29.9026C16.0402 29.8689 16.1964 29.9916 16.3246 30.0449Z" fill="#F6F4F3"/>
<path d="M11.7382 33.2118C11.8646 32.6944 12.2122 32.3921 12.7439 32.2729C12.7569 32.9273 12.4837 33.3007 11.7382 33.2118Z" fill="#F6F4F3"/>
<path d="M6.78748 35.9378C6.95294 36.2116 7.1184 36.4837 7.282 36.7576C7.00685 36.7078 6.62202 36.7451 6.48445 36.5868C6.26507 36.3343 6.51605 36.0872 6.78748 35.9378Z" fill="#F6F4F3"/>
<path d="M0.674718 23.7874C0.652409 23.6362 0.710041 23.5206 0.845755 23.4424C1.08186 23.3535 1.31797 23.2646 1.55407 23.1757C1.47413 23.6576 1.23245 23.9296 0.674718 23.7874Z" fill="#F6F4F3"/>
<path d="M40.9576 27.9182C40.8331 27.4914 40.7866 27.0753 41.1565 26.7214C41.2755 27.1482 41.3109 27.5625 40.9576 27.9182Z" fill="#F6F3F2"/>
<path d="M17.4215 32.401C17.4196 32.698 17.4196 32.9949 17.4178 33.2937C16.9604 32.9949 16.9623 32.698 17.4215 32.401Z" fill="#F6F4F3"/>
<path d="M9.86426 36.3931C9.94234 36.1281 10.0204 35.8614 10.0985 35.5964C10.2119 35.5804 10.3253 35.5751 10.4406 35.5769C10.4238 35.9627 10.2937 36.2739 9.86426 36.3931Z" fill="#F6F4F3"/>
<path d="M52.6867 33.1158C52.815 33.3114 52.9451 33.507 53.0734 33.7009C52.7704 33.612 52.6235 33.427 52.6867 33.1158Z" fill="#F6F3F2"/>
<path d="M13.075 32.2427C13.1828 32.3068 13.2888 32.369 13.3966 32.433C13.1456 32.7317 13.1512 32.337 13.0248 32.3032C13.0248 32.3014 13.075 32.2427 13.075 32.2427Z" fill="#F6F4F3"/>
<path d="M48.764 29.3051C48.9351 29.4349 49.1043 29.563 49.2753 29.6928C49.1043 29.563 48.9332 29.4349 48.764 29.3051Z" fill="#F6F3F2"/>
<path d="M61.8311 22.5762C61.7681 22.5371 61.705 22.4981 61.6401 22.4609C61.7124 22.491 61.7848 22.5212 61.8571 22.5513C61.8589 22.5513 61.8311 22.5762 61.8311 22.5762Z" fill="#F6F3F2"/>
<path d="M22.9988 10.6216C23.1717 10.1718 22.904 9.06572 23.8093 9.54406C25.609 10.4936 27.4736 9.75744 29.2658 10.0917C27.2524 11.0786 25.2353 12.0513 22.9988 10.6216Z" fill="#D1242B"/>
<path d="M103.321 29.9091C103.321 31.803 102.983 33.4513 102.309 34.854C101.634 36.2508 100.705 37.3339 99.521 38.1033C98.3432 38.8668 96.9878 39.2486 95.4549 39.2486C93.922 39.2486 92.5637 38.8668 91.38 38.1033C90.2022 37.3339 89.2759 36.2508 88.6012 34.854C87.9324 33.4513 87.598 31.803 87.598 29.9091C87.598 28.0152 87.9324 26.3698 88.6012 24.973C89.2759 23.5703 90.2051 22.4872 91.3888 21.7237C92.5726 20.9543 93.9279 20.5696 95.4549 20.5696C96.9878 20.5696 98.3432 20.9543 99.521 21.7237C100.705 22.4872 101.634 23.5703 102.309 24.973C102.983 26.3698 103.321 28.0152 103.321 29.9091ZM101.705 29.9091C101.705 28.2815 101.433 26.8877 100.888 25.7276C100.344 24.5617 99.6009 23.6709 98.6598 23.0554C97.7188 22.4399 96.6505 22.1321 95.4549 22.1321C94.2653 22.1321 93.1999 22.4399 92.2589 23.0554C91.3178 23.6709 90.5721 24.5587 90.0217 25.7188C89.4772 26.8788 89.2049 28.2756 89.2049 29.9091C89.2049 31.5367 89.4772 32.9305 90.0217 34.0906C90.5662 35.2506 91.3089 36.1413 92.25 36.7628C93.1911 37.3783 94.2594 37.6861 95.4549 37.6861C96.6505 37.6861 97.7188 37.3783 98.6598 36.7628C99.6068 36.1473 100.353 35.2595 100.897 34.0994C101.442 32.9335 101.711 31.5367 101.705 29.9091ZM120.246 20.8182V39H118.63L107.888 23.7745H107.746V39H106.086V20.8182H107.693L118.47 36.0614H118.612V20.8182H120.246ZM123.83 39V20.8182H134.377V22.3097H125.49V29.1545H133.817V30.646H125.49V37.5085H134.554V39H123.83ZM137.424 39V20.8182H139.084V37.5085H147.748V39H137.424ZM151.896 20.8182V39H150.236V20.8182H151.896ZM154.379 22.3097V20.8182H167.563V22.3097H161.801V39H160.141V22.3097H154.379ZM184.2 29.9091C184.2 31.803 183.862 33.4513 183.188 34.854C182.513 36.2508 181.584 37.3339 180.4 38.1033C179.222 38.8668 177.867 39.2486 176.334 39.2486C174.801 39.2486 173.443 38.8668 172.259 38.1033C171.081 37.3339 170.155 36.2508 169.48 34.854C168.811 33.4513 168.477 31.803 168.477 29.9091C168.477 28.0152 168.811 26.3698 169.48 24.973C170.155 23.5703 171.084 22.4872 172.268 21.7237C173.451 20.9543 174.807 20.5696 176.334 20.5696C177.867 20.5696 179.222 20.9543 180.4 21.7237C181.584 22.4872 182.513 23.5703 183.188 24.973C183.862 26.3698 184.2 28.0152 184.2 29.9091ZM182.584 29.9091C182.584 28.2815 182.312 26.8877 181.767 25.7276C181.223 24.5617 180.48 23.6709 179.539 23.0554C178.598 22.4399 177.529 22.1321 176.334 22.1321C175.144 22.1321 174.079 22.4399 173.138 23.0554C172.197 23.6709 171.451 24.5587 170.901 25.7188C170.356 26.8788 170.084 28.2756 170.084 29.9091C170.084 31.5367 170.356 32.9305 170.901 34.0906C171.445 35.2506 172.188 36.1413 173.129 36.7628C174.07 37.3783 175.138 37.6861 176.334 37.6861C177.529 37.6861 178.598 37.3783 179.539 36.7628C180.486 36.1473 181.231 35.2595 181.776 34.0994C182.32 32.9335 182.59 31.5367 182.584 29.9091Z" fill="black"/>
<path d="M192.533 39V20.8182H194.734V29.8381H194.948L203.115 20.8182H205.992L198.357 29.0213L205.992 39H203.328L197.007 30.5483L194.734 33.1051V39H192.533ZM222.078 29.9091C222.078 31.8267 221.732 33.4839 221.039 34.8807C220.347 36.2775 219.397 37.3546 218.189 38.1122C216.982 38.8698 215.603 39.2486 214.052 39.2486C212.502 39.2486 211.123 38.8698 209.915 38.1122C208.708 37.3546 207.758 36.2775 207.065 34.8807C206.373 33.4839 206.027 31.8267 206.027 29.9091C206.027 27.9915 206.373 26.3343 207.065 24.9375C207.758 23.5407 208.708 22.4635 209.915 21.706C211.123 20.9484 212.502 20.5696 214.052 20.5696C215.603 20.5696 216.982 20.9484 218.189 21.706C219.397 22.4635 220.347 23.5407 221.039 24.9375C221.732 26.3343 222.078 27.9915 222.078 29.9091ZM219.947 29.9091C219.947 28.3348 219.684 27.006 219.157 25.9229C218.636 24.8398 217.929 24.0201 217.035 23.4638C216.147 22.9074 215.153 22.6293 214.052 22.6293C212.951 22.6293 211.954 22.9074 211.06 23.4638C210.173 24.0201 209.465 24.8398 208.939 25.9229C208.418 27.006 208.157 28.3348 208.157 29.9091C208.157 31.4834 208.418 32.8121 208.939 33.8952C209.465 34.9783 210.173 35.7981 211.06 36.3544C211.954 36.9107 212.951 37.1889 214.052 37.1889C215.153 37.1889 216.147 36.9107 217.035 36.3544C217.929 35.7981 218.636 34.9783 219.157 33.8952C219.684 32.8121 219.947 31.4834 219.947 29.9091ZM226.732 20.8182V39H224.53V20.8182H226.732Z" fill="#D52027"/>
</svg>
